<?xml version="1.0" encoding="UTF-8" standalone="no"?><!DOCTYPE svg PUBLIC "-//W3C//DTD SVG 1.1//EN" "http://www.w3.org/Graphics/SVG/1.1/DTD/svg11.dtd"><svg width="100%" height="100%" viewBox="-2 -2 35 35" version="1.1" xmlns="http://www.w3.org/2000/svg" xmlns:xlink="http://www.w3.org/1999/xlink" xml:space="preserve" style="fill-rule:evenodd;clip-rule:evenodd;stroke-linejoin:round;stroke-miterlimit:1.41421;"><path d="M16.288,0.161c-8.995,0 -16.288,7.293 -16.288,16.29c0,7.197 4.667,13.302 11.14,15.457c0.815,0.149 1.112,-0.354 1.112,-0.786c0,-0.386 -0.014,-1.411 -0.022,-2.77c-4.531,0.984 -5.487,-2.184 -5.487,-2.184c-0.741,-1.881 -1.809,-2.382 -1.809,-2.382c-1.479,-1.011 0.112,-0.991 0.112,-0.991c1.635,0.116 2.495,1.679 2.495,1.679c1.453,2.489 3.813,1.77 4.741,1.354c0.148,-1.053 0.568,-1.771 1.034,-2.178c-3.617,-0.411 -7.42,-1.809 -7.42,-8.051c0,-1.778 0.635,-3.232 1.677,-4.371c-0.168,-0.412 -0.727,-2.068 0.159,-4.311c0,0 1.368,-0.438 4.48,1.67c1.299,-0.361 2.693,-0.542 4.078,-0.548c1.383,0.006 2.777,0.187 4.078,0.548c3.11,-2.108 4.475,-1.67 4.475,-1.67c0.889,2.243 0.33,3.899 0.162,4.311c1.044,1.139 1.675,2.593 1.675,4.371c0,6.258 -3.809,7.635 -7.438,8.038c0.585,0.503 1.106,1.497 1.106,3.017c0,2.177 -0.02,3.934 -0.02,4.468c0,0.436 0.293,0.943 1.12,0.784c6.468,-2.159 11.131,-8.26 11.131,-15.455c0,-8.997 -7.294,-16.29 -16.291,-16.29" style="fill:#757575;"/></svg>
